<svg width="136" height="32" viewBox="0 0 136 32" fill="none" xmlns="http://www.w3.org/2000/svg">
<path fill-rule="evenodd" clip-rule="evenodd" d="M12.2662 12.0587C11.4725 11.2154 10.4743 9.69981 9.83514 8.63493L7.9252 8.65384C8.39026 9.90112 10.6212 12.797 10.9965 13.1114C10.893 13.2616 8.64575 15.2514 6.49367 16.2515C6.83817 16.7519 7.18935 17.3233 7.50697 17.8204C9.45903 16.898 10.9565 15.7195 12.229 14.5566C13.2282 15.3317 14.969 16.8972 16.0734 17.3079C16.2399 17.0292 16.6986 15.8472 16.7685 15.5719C16.1007 15.2855 14.0549 13.752 13.6849 13.22C14.5864 12.3769 16.3911 9.23381 16.5989 7.466H18.4004V5.56417H12.9213V3.90002H10.7774V5.56417H5.06006V7.466H14.6819C14.548 8.85552 12.744 11.6202 12.2662 12.0587Z" fill="#2986C9"/>
<path fill-rule="evenodd" clip-rule="evenodd" d="M29.3666 1C26.673 3.62273 24.2745 5.06924 23.1314 8.61268C23.1314 12.3284 23.1314 16.0443 23.1314 19.76C23.1314 21.1514 21.5559 22.8594 20.1772 22.8594C14.8241 22.8594 9.47092 22.8594 4.11783 22.8594C2.35981 22.8594 1 21.1672 1 19.9233C1 14.9508 1 9.9783 1 5.00577C1 3.72028 1.23445 1.01052 3.54578 1.01052C12.1526 1.01052 20.7597 1.00351 29.3666 1Z" stroke="#2986C9" stroke-width="2" stroke-miterlimit="22.9256"/>
<path fill-rule="evenodd" clip-rule="evenodd" d="M14.8685 13.1081C14.8685 16.8238 14.8685 20.5397 14.8685 24.2554C13.7254 27.7989 11.3269 29.2454 8.6333 31.8681C17.2402 31.8646 25.8473 31.8576 34.4541 31.8576C36.7654 31.8576 36.9999 29.1478 36.9999 27.8623C36.9999 22.8898 36.9999 17.9173 36.9999 12.9448C36.9999 11.7009 35.6401 10.0087 33.8821 10.0087C28.529 10.0087 23.1758 10.0087 17.8227 10.0087C16.444 10.0087 14.8685 11.7167 14.8685 13.1081Z" fill="url(#paint0_linear_353_31250)"/>
<path d="M22.0495 28.2607H19.2705L24.3302 13.7604H27.5442L32.6108 28.2607H29.8319L25.9933 16.7341H25.881L22.0495 28.2607ZM22.1407 22.5753H29.7196V24.6852H22.1407V22.5753Z" fill="white"/>
<path d="M44.56 8.4C44.56 7.30133 44.8053 6.32 45.296 5.456C45.7973 4.58133 46.4747 3.904 47.328 3.424C48.192 2.93333 49.1573 2.688 50.224 2.688C51.472 2.688 52.5653 3.008 53.504 3.648C54.4427 4.288 55.0987 5.17333 55.472 6.304H52.896C52.64 5.77067 52.2773 5.37067 51.808 5.104C51.3493 4.83733 50.816 4.704 50.208 4.704C49.5573 4.704 48.976 4.85867 48.464 5.168C47.9627 5.46667 47.568 5.89333 47.28 6.448C47.0027 7.00267 46.864 7.65333 46.864 8.4C46.864 9.136 47.0027 9.78667 47.28 10.352C47.568 10.9067 47.9627 11.3387 48.464 11.648C48.976 11.9467 49.5573 12.096 50.208 12.096C50.816 12.096 51.3493 11.9627 51.808 11.696C52.2773 11.4187 52.64 11.0133 52.896 10.48H55.472C55.0987 11.6213 54.4427 12.512 53.504 13.152C52.576 13.7813 51.4827 14.096 50.224 14.096C49.1573 14.096 48.192 13.856 47.328 13.376C46.4747 12.8853 45.7973 12.208 45.296 11.344C44.8053 10.48 44.56 9.49867 44.56 8.4ZM59.6253 2.16V14H57.3853V2.16H59.6253ZM62.9744 4.08C62.5797 4.08 62.249 3.95733 61.9824 3.712C61.7264 3.456 61.5984 3.14133 61.5984 2.768C61.5984 2.39467 61.7264 2.08533 61.9824 1.84C62.249 1.584 62.5797 1.456 62.9744 1.456C63.369 1.456 63.6944 1.584 63.9504 1.84C64.217 2.08533 64.3504 2.39467 64.3504 2.768C64.3504 3.14133 64.217 3.456 63.9504 3.712C63.6944 3.95733 63.369 4.08 62.9744 4.08ZM64.0784 5.136V14H61.8384V5.136H64.0784ZM65.7155 9.568C65.7155 8.65067 65.9022 7.85067 66.2755 7.168C66.6488 6.47467 67.1662 5.94133 67.8275 5.568C68.4888 5.184 69.2462 4.992 70.0995 4.992C71.1982 4.992 72.1048 5.26933 72.8195 5.824C73.5448 6.368 74.0302 7.136 74.2755 8.128H71.8595C71.7315 7.744 71.5128 7.44533 71.2035 7.232C70.9048 7.008 70.5315 6.896 70.0835 6.896C69.4435 6.896 68.9368 7.13067 68.5635 7.6C68.1902 8.05867 68.0035 8.71467 68.0035 9.568C68.0035 10.4107 68.1902 11.0667 68.5635 11.536C68.9368 11.9947 69.4435 12.224 70.0835 12.224C70.9902 12.224 71.5822 11.8187 71.8595 11.008H74.2755C74.0302 11.968 73.5448 12.7307 72.8195 13.296C72.0942 13.8613 71.1875 14.144 70.0995 14.144C69.2462 14.144 68.4888 13.9573 67.8275 13.584C67.1662 13.2 66.6488 12.6667 66.2755 11.984C65.9022 11.2907 65.7155 10.4853 65.7155 9.568ZM81.1645 14L78.1565 10.224V14H75.9165V2.16H78.1565V8.896L81.1325 5.136H84.0445L80.1405 9.584L84.0765 14H81.1645Z" fill="#2986C9"/>
<path d="M52.704 17.832V19.64H49.728V29H47.488V19.64H44.512V17.832H52.704ZM56.5784 21.512C56.8664 21.0427 57.2397 20.6747 57.6984 20.408C58.1677 20.1413 58.701 20.008 59.2984 20.008V22.36H58.7064C58.0024 22.36 57.469 22.5253 57.1064 22.856C56.7544 23.1867 56.5784 23.7627 56.5784 24.584V29H54.3384V20.136H56.5784V21.512ZM60.2311 24.536C60.2311 23.64 60.4071 22.8453 60.7591 22.152C61.1218 21.4587 61.6071 20.9253 62.2151 20.552C62.8338 20.1787 63.5218 19.992 64.2791 19.992C64.9405 19.992 65.5165 20.1253 66.0071 20.392C66.5085 20.6587 66.9085 20.9947 67.2071 21.4V20.136H69.4631V29H67.2071V27.704C66.9191 28.12 66.5191 28.4667 66.0071 28.744C65.5058 29.0107 64.9245 29.144 64.2631 29.144C63.5165 29.144 62.8338 28.952 62.2151 28.568C61.6071 28.184 61.1218 27.6453 60.7591 26.952C60.4071 26.248 60.2311 25.4427 60.2311 24.536ZM67.2071 24.568C67.2071 24.024 67.1005 23.56 66.8871 23.176C66.6738 22.7813 66.3858 22.4827 66.0231 22.28C65.6605 22.0667 65.2711 21.96 64.8551 21.96C64.4391 21.96 64.0551 22.0613 63.7031 22.264C63.3511 22.4667 63.0631 22.7653 62.8391 23.16C62.6258 23.544 62.5191 24.0027 62.5191 24.536C62.5191 25.0693 62.6258 25.5387 62.8391 25.944C63.0631 26.3387 63.3511 26.6427 63.7031 26.856C64.0658 27.0693 64.4498 27.176 64.8551 27.176C65.2711 27.176 65.6605 27.0747 66.0231 26.872C66.3858 26.6587 66.6738 26.36 66.8871 25.976C67.1005 25.5813 67.2071 25.112 67.2071 24.568ZM76.5629 20.008C77.6189 20.008 78.4722 20.344 79.1229 21.016C79.7735 21.6773 80.0989 22.6053 80.0989 23.8V29H77.8589V24.104C77.8589 23.4 77.6829 22.8613 77.3309 22.488C76.9789 22.104 76.4989 21.912 75.8909 21.912C75.2722 21.912 74.7815 22.104 74.4189 22.488C74.0669 22.8613 73.8909 23.4 73.8909 24.104V29H71.6509V20.136H73.8909V21.24C74.1895 20.856 74.5682 20.5573 75.0269 20.344C75.4962 20.12 76.0082 20.008 76.5629 20.008ZM85.621 29.144C84.8957 29.144 84.245 29.016 83.669 28.76C83.093 28.4933 82.6343 28.136 82.293 27.688C81.9623 27.24 81.781 26.744 81.749 26.2H84.005C84.0477 26.5413 84.213 26.824 84.501 27.048C84.7997 27.272 85.1677 27.384 85.605 27.384C86.0317 27.384 86.3623 27.2987 86.597 27.128C86.8423 26.9573 86.965 26.7387 86.965 26.472C86.965 26.184 86.8157 25.9707 86.517 25.832C86.229 25.6827 85.765 25.5227 85.125 25.352C84.4637 25.192 83.9197 25.0267 83.493 24.856C83.077 24.6853 82.7143 24.424 82.405 24.072C82.1063 23.72 81.957 23.2453 81.957 22.648C81.957 22.1573 82.0957 21.7093 82.373 21.304C82.661 20.8987 83.0663 20.5787 83.589 20.344C84.1223 20.1093 84.7463 19.992 85.461 19.992C86.517 19.992 87.3597 20.2587 87.989 20.792C88.6183 21.3147 88.965 22.024 89.029 22.92H86.885C86.853 22.568 86.7037 22.2907 86.437 22.088C86.181 21.8747 85.8343 21.768 85.397 21.768C84.9917 21.768 84.677 21.8427 84.453 21.992C84.2397 22.1413 84.133 22.3493 84.133 22.616C84.133 22.9147 84.2823 23.144 84.581 23.304C84.8797 23.4533 85.3437 23.608 85.973 23.768C86.613 23.928 87.141 24.0933 87.557 24.264C87.973 24.4347 88.3303 24.7013 88.629 25.064C88.9383 25.416 89.0983 25.8853 89.109 26.472C89.109 26.984 88.965 27.4427 88.677 27.848C88.3997 28.2533 87.9943 28.5733 87.461 28.808C86.9383 29.032 86.325 29.144 85.621 29.144ZM93.1878 17.16V29H90.9478V17.16H93.1878ZM94.8249 24.536C94.8249 23.64 95.0009 22.8453 95.3529 22.152C95.7155 21.4587 96.2009 20.9253 96.8089 20.552C97.4275 20.1787 98.1155 19.992 98.8729 19.992C99.5342 19.992 100.11 20.1253 100.601 20.392C101.102 20.6587 101.502 20.9947 101.801 21.4V20.136H104.057V29H101.801V27.704C101.513 28.12 101.113 28.4667 100.601 28.744C100.1 29.0107 99.5182 29.144 98.8569 29.144C98.1102 29.144 97.4275 28.952 96.8089 28.568C96.2009 28.184 95.7155 27.6453 95.3529 26.952C95.0009 26.248 94.8249 25.4427 94.8249 24.536ZM101.801 24.568C101.801 24.024 101.694 23.56 101.481 23.176C101.268 22.7813 100.98 22.4827 100.617 22.28C100.254 22.0667 99.8649 21.96 99.4489 21.96C99.0329 21.96 98.6489 22.0613 98.2969 22.264C97.9449 22.4667 97.6569 22.7653 97.4329 23.16C97.2195 23.544 97.1129 24.0027 97.1129 24.536C97.1129 25.0693 97.2195 25.5387 97.4329 25.944C97.6569 26.3387 97.9449 26.6427 98.2969 26.856C98.6595 27.0693 99.0435 27.176 99.4489 27.176C99.8649 27.176 100.254 27.0747 100.617 26.872C100.98 26.6587 101.268 26.36 101.481 25.976C101.694 25.5813 101.801 25.112 101.801 24.568ZM108.853 21.976V26.264C108.853 26.5627 108.922 26.7813 109.061 26.92C109.21 27.048 109.455 27.112 109.797 27.112H110.837V29H109.429C107.541 29 106.597 28.0827 106.597 26.248V21.976H105.541V20.136H106.597V17.944H108.853V20.136H110.837V21.976H108.853ZM116.384 29.144C115.53 29.144 114.762 28.9573 114.08 28.584C113.397 28.2 112.858 27.6613 112.464 26.968C112.08 26.2747 111.888 25.4747 111.888 24.568C111.888 23.6613 112.085 22.8613 112.48 22.168C112.885 21.4747 113.434 20.9413 114.128 20.568C114.821 20.184 115.594 19.992 116.448 19.992C117.301 19.992 118.074 20.184 118.768 20.568C119.461 20.9413 120.005 21.4747 120.4 22.168C120.805 22.8613 121.008 23.6613 121.008 24.568C121.008 25.4747 120.8 26.2747 120.384 26.968C119.978 27.6613 119.424 28.2 118.72 28.584C118.026 28.9573 117.248 29.144 116.384 29.144ZM116.384 27.192C116.789 27.192 117.168 27.096 117.52 26.904C117.882 26.7013 118.17 26.4027 118.384 26.008C118.597 25.6133 118.704 25.1333 118.704 24.568C118.704 23.7253 118.48 23.08 118.032 22.632C117.594 22.1733 117.056 21.944 116.416 21.944C115.776 21.944 115.237 22.1733 114.8 22.632C114.373 23.08 114.16 23.7253 114.16 24.568C114.16 25.4107 114.368 26.0613 114.784 26.52C115.21 26.968 115.744 27.192 116.384 27.192ZM124.891 21.512C125.179 21.0427 125.552 20.6747 126.011 20.408C126.48 20.1413 127.014 20.008 127.611 20.008V22.36H127.019C126.315 22.36 125.782 22.5253 125.419 22.856C125.067 23.1867 124.891 23.7627 124.891 24.584V29H122.651V20.136H124.891V21.512Z" fill="#3B4748"/>
<defs>
<linearGradient id="paint0_linear_353_31250" x1="22.8166" y1="10.0087" x2="22.8166" y2="31.8681" gradientUnits="userSpaceOnUse">
<stop stop-color="#4BBD41"/>
<stop offset="1" stop-color="#3DDBA2"/>
</linearGradient>
</defs>
</svg>
